<svg xmlns="http://www.w3.org/2000/svg" viewBox="0 0 64 64">
  <defs>
    <linearGradient id="g" x1="8" y1="8" x2="56" y2="56" gradientUnits="userSpaceOnUse">
      <stop offset="0" stop-color="#3B82F6"/>
      <stop offset="0.55" stop-color="#06B6D4"/>
      <stop offset="1" stop-color="#14B8A6"/>
    </linearGradient>
  </defs>
  <rect x="3" y="3" width="58" height="58" rx="17" fill="url(#g)"/>
  <path d="M17.5 19.5C21.2 14.9 26.1 12.6 32 12.6C37.9 12.6 42.8 14.9 46.5 19.5C49.7 23.4 51.3 27.6 51.3 32C51.3 36.4 49.7 40.6 46.5 44.5C42.8 49.1 37.9 51.4 32 51.4C26.1 51.4 21.2 49.1 17.5 44.5C14.3 40.6 12.7 36.4 12.7 32C12.7 27.6 14.3 23.4 17.5 19.5Z" fill="none" stroke="#FFFFFF" stroke-width="5.6"/>
  <path d="M21 22.5L32 42.5L43 22.5" fill="none" stroke="#FFFFFF" stroke-width="4.2" stroke-linecap="round" stroke-linejoin="round"/>
</svg>
